<?xml version="1.0" encoding="UTF-8" standalone="no"?>
<!-- Created with Inkscape (http://www.inkscape.org/) -->

<svg
   version="1.1"
   id="svg182"
   width="285"
   height="300"
   viewBox="0 0 285 299.99999"
   xmlns="http://www.w3.org/2000/svg"
   xmlns:svg="http://www.w3.org/2000/svg">
  <defs
     id="defs530" />
  <g
     id="g517"
     transform="translate(2.176872,1.2603728e-5)">
    <path
       d="m -150.85132,327.01226 h -1.208 c -0.677,0 -1.013,-0.52 -1.094,-1.128 -0.078,-0.586 -1.462,-11.107 -1.462,-11.107 0,0 -14.886,-1.393 -15.753,-1.491 -0.868,-0.098 -1.186,-0.591 -1.186,-1.138 v -1.176 l 19.782,0.961 z m -5.859,-1.725 h -0.81 c -0.537,0 -0.949,-0.417 -1.057,-0.932 l -0.973,-4.644 c 0,0 -6.829,-0.8 -7.506,-0.982 -0.676,-0.182 -1.048,-0.549 -1.048,-1.088 v -0.81 l 10.939,0.495 z m 9.324,-19.121 -27.617,-1.052 v 1.212 c 0,0.62 0.457,1.036 1.185,1.102 0.727,0.065 24.596,1.956 24.596,1.956 0,0 1.854,17.617 1.928,18.225 0.081,0.669 0.455,1.128 1.127,1.128 h 1.175 l -1.028,-21.193 c -0.067,-0.741 -0.602,-1.305 -1.366,-1.378"
       style="fill:#33b990;fill-opacity:1;fill-rule:nonzero;stroke:none"
       transform="matrix(3.9811928,0,0,-3.9811928,712.35731,1308.7664)"
       id="path507" />
    <path
       d="m -136.51652,256.83296 h 1.178 c 0.703,0 1.067,0.54 1.124,1.128 0.057,0.589 1.548,22.561 1.548,22.561 0,0 13.865,1.393 14.733,1.491 0.868,0.098 1.257,0.473 1.257,1.144 v 1.176 l -18.834,-0.967 z m 5.859,6.9 h 0.811 c 0.536,0 0.987,0.421 1.056,0.932 l 1.058,10.923 c 0,0 5.019,0.806 5.695,0.988 0.677,0.182 1.049,0.549 1.049,1.089 v 0.809 l -9.129,-0.501 z m 18.293,26.459 v -1.214 c 0,-0.62 -0.457,-1.035 -1.185,-1.101 -0.728,-0.065 -24.51,-1.962 -24.51,-1.962 0,0 -1.955,-30.794 -2.014,-31.404 -0.063,-0.657 -0.455,-1.128 -1.126,-1.128 h -1.175 l 1.114,34.378 c 0.031,0.742 0.625,1.335 1.366,1.367 z"
       style="fill:#33b990;fill-opacity:1;fill-rule:nonzero;stroke:none"
       transform="matrix(3.9811928,0,0,-3.9811928,712.35731,1308.7664)"
       id="path509" />
    <path
       d="m -117.09502,306.78936 v 0.68 l -24.007,0.971 c -0.662,0.026 -1.177,-0.502 -1.212,-1.165 l -0.061,-1.265 h 24.502 c 0.429,0 0.778,0.349 0.778,0.779 m -4.581,5.657 v 0.681 l -19.145,0.971 c -0.661,0.025 -1.178,-0.506 -1.211,-1.166 l -0.062,-1.264 h 19.64 c 0.43,0 0.778,0.349 0.778,0.778 m -5.359,4.88 h -14.778 l 0.062,1.264 c 0.033,0.661 0.55,1.191 1.211,1.165 l 14.283,-0.971 v -0.68 c 0,-0.43 -0.348,-0.778 -0.778,-0.778"
       style="fill:#fcd205;fill-opacity:1;fill-rule:nonzero;stroke:none"
       transform="matrix(3.9811928,0,0,-3.9811928,712.35731,1308.7664)"
       id="path511" />
    <path
       d="m -160.54962,288.51756 v -0.68 l 14.285,-0.971 c 0.661,-0.026 1.211,0.502 1.211,1.165 l 0.061,1.265 h -14.778 c -0.43,0 -0.779,-0.349 -0.779,-0.779 m 5.365,-4.879 h 9.916 l -0.062,-1.264 c -0.031,-0.651 -0.544,-1.227 -1.211,-1.166 l -9.422,0.971 v 0.681 c 0,0.429 0.349,0.778 0.779,0.778"
       style="fill:#fcd205;fill-opacity:1;fill-rule:nonzero;stroke:none"
       transform="matrix(3.9811928,0,0,-3.9811928,712.35731,1308.7664)"
       id="path513" />
    <path
       d="m 280.64624,136.77864 -10.30333,-13.86251 9.71809,-12.19042 h -7.57621 l -7.46473,9.84151 v -9.84151 h -3.37207 c -1.7159,0 -3.10533,1.38944 -3.10533,3.10135 v 22.95158 h 6.4774 v -7.16615 l 1.23019,-1.54868 6.31019,8.71483 z m -43.65776,-26.05691 8.89398,14.63885 v -14.63885 h 6.21863 v 26.05691 h -5.74486 l -8.89001,-14.63885 v 11.5375 c 0,1.71191 -1.38943,3.10135 -3.10135,3.10135 h -3.12125 v -22.95556 c 0,-1.71191 1.38943,-3.10135 3.10135,-3.10135 z m -25.54731,15.04095 h 5.12379 l -2.52408,-8.67104 z m 6.25843,5.15963 h -7.39307 l -1.01123,3.59501 c -0.37423,1.33768 -1.59646,2.26132 -2.98589,2.26132 h -4.16433 l 7.58417,-23.89114 c 0.41007,-1.2899 1.60442,-2.16577 2.95803,-2.16577 h 5.08398 l 8.52772,26.05691 h -6.95515 z m -32.79308,0.8042 h 4.10062 c 0.82809,0 1.5248,-0.19508 2.08615,-0.58524 0.56135,-0.39016 0.84003,-1.03511 0.84003,-1.93884 v -0.50959 c 0,-1.00326 -0.26276,-1.72386 -0.78429,-2.16179 -0.52552,-0.43793 -1.28991,-0.6569 -2.28919,-0.6569 h -3.95332 z m 0,-10.94032 h 3.95332 c 0.75643,0 1.37351,-0.18712 1.84727,-0.56533 0.47775,-0.37821 0.71264,-0.95947 0.71264,-1.73978 v -0.4021 c 0,-0.85596 -0.2548,-1.45712 -0.76837,-1.81145 -0.5096,-0.35432 -1.15853,-0.53348 -1.93884,-0.53348 h -3.80602 z m -6.25446,15.99245 v -22.95556 c 0,-1.71191 1.38546,-3.10135 3.10135,-3.10135 h 7.76333 c 1.4173,0 2.64749,0.16721 3.69852,0.49367 1.04706,0.33044 1.907,0.80022 2.57982,1.40934 0.66884,0.61311 1.17047,1.32972 1.50091,2.15781 0.32646,0.83207 0.49367,1.74774 0.49367,2.74702 v 0.51358 c 0,1.09881 -0.23489,2.08614 -0.69671,2.962 -0.46182,0.87985 -1.15853,1.5885 -2.08615,2.12198 1.02715,0.51357 1.84329,1.27796 2.45242,2.28919 0.60912,1.01122 0.91567,2.16576 0.91567,3.45567 v 0.51357 c 0,2.29317 -0.75643,4.09665 -2.26928,5.41443 -1.51285,1.31777 -3.94138,1.97865 -7.2816,1.97865 z m -13.36884,-26.037 -5.66524,13.19765 -5.88819,-13.19765 h -3.58705 c -1.91097,0 -3.17699,1.25009 -3.17699,2.97793 v 23.05509 l 6.36194,0.004 v -14.77819 l 4.0449,9.06916 h 1.87514 c 1.65617,0 3.20486,-1.23019 4.10063,-3.45966 0.89576,-2.23345 2.2653,-5.64533 2.2653,-5.64533 v 14.81004 h 2.33297 c 2.30511,0 4.00907,-0.86392 4.00907,-3.39994 v -22.63706 z m -28.05945,26.037 h -3.74232 v -22.95556 c 0,-1.71191 1.38943,-3.10135 3.10135,-3.10135 h 3.74232 v 22.95556 c 0,1.71191 -1.38944,3.10135 -3.10135,3.10135 m -24.18575,-22.13543 -2.0941,-3.9175 h -7.75537 l 5.96781,9.82559 z m 5.95587,8.4879 7.64787,-12.4054 h -5.2711 c -1.35361,0 -2.59574,0.73652 -3.24865,1.92292 l -15.84913,24.13001 h 5.84439 c 1.09483,0 2.10605,-0.57727 2.6674,-1.52082 l 4.07674,-6.89542 4.86502,8.41624 h 7.79517 z m -22.095622,-12.4054 -0.656897,5.30295 H 85.484188 v 4.98048 h 10.31527 l -0.656897,5.30294 h -9.658373 v 5.15963 h 11.41408 l -0.318496,2.58778 c -0.195078,1.55266 -1.512853,2.71915 -3.077462,2.71915 h -14.7543 v -22.95158 c 0,-1.71191 1.389436,-3.10135 3.101349,-3.10135 z M 59.212296,122.4344 h 3.475582 c 0.951505,0 1.684044,-0.25081 2.197618,-0.74846 0.509593,-0.50163 0.76837,-1.21427 0.76837,-2.14188 v -0.58524 c 0,-1.87912 -0.991317,-2.81868 -2.965988,-2.81868 h -3.475582 z m 12.990633,-2.92617 c 0,1.02316 -0.08759,1.91893 -0.254797,2.6873 -0.171191,0.76837 -0.441912,1.44517 -0.808182,2.03041 -0.362288,0.58523 -0.824107,1.09881 -1.373511,1.53674 -0.545424,0.44191 -1.198339,0.83207 -1.954766,1.17047 l 5.378591,9.84549 h -7.174109 l -4.534579,-9.03731 h -2.26928 v 5.93596 c 0,1.71191 -1.389436,3.10135 -3.101349,3.10135 h -3.523355 v -26.05293 h 11.346399 c 1.536741,0 2.826647,0.21101 3.877682,0.64098 1.047054,0.42598 1.895048,1.00326 2.543982,1.7358 0.644953,0.73254 1.114734,1.58053 1.409342,2.54398 0.290627,0.96345 0.437932,1.99458 0.437932,3.09339 z m -25.348255,-8.78252 -0.660878,5.41443 H 36.169153 v 5.52589 h 9.184611 l -0.660878,5.30693 h -8.523733 v 6.70433 c 0,1.71191 -1.389437,3.10135 -3.10135,3.10135 h -3.742321 v -22.95158 c 0,-1.71191 1.389436,-3.10135 3.101349,-3.10135 z M 9.2961011,125.76268 h 5.1237949 l -2.524076,-8.67104 z m 6.2584349,5.15963 H 8.1614612 l -1.011223,3.59501 c -0.3742321,1.33768 -1.5964583,2.26132 -2.9858946,2.26132 H 1.59496e-5 L 7.5841882,112.8875 c 0.4100629,-1.28592 1.6044207,-2.16179 2.9580258,-2.16179 h 5.083984 l 8.527715,26.05293 H 17.20275 Z"
       style="fill:#037370;fill-opacity:1;fill-rule:nonzero;stroke:none;stroke-width:3.98119"
       id="path515" />
  </g>
</svg>
